<svg xmlns="http://www.w3.org/2000/svg" viewBox="0 0 720 520" fill="none"><defs><linearGradient id="g" x1="130" y1="420" x2="610" y2="90" gradientUnits="userSpaceOnUse"><stop stop-color="#3A81DF" stop-opacity=".07"/><stop offset=".55" stop-color="#77B2FA" stop-opacity=".58"/><stop offset="1" stop-color="#D8EBFF" stop-opacity=".14"/></linearGradient></defs><g stroke="url(#g)" stroke-linecap="round" stroke-linejoin="round"><path d="M235 104h258l72 72v240H235Z"/><path d="M493 104v72h72" stroke-opacity=".45"/><path d="M286 213h176M286 246h218M286 279h157M286 356h208" stroke-opacity=".42"/><path d="M286 389h142" stroke-opacity=".28"/><circle cx="329" cy="158" r="28"/><path d="M375 144h88M375 166h112" stroke-opacity=".36"/></g><g stroke="#83BAFC" stroke-opacity=".22"><path d="M204 134v252M596 152v236"/><path d="M204 174h31M565 204h31M204 342h31M565 340h31"/></g><g fill="#A6CEFF"><circle cx="235" cy="104" r="3" fill-opacity=".55"/><circle cx="565" cy="176" r="3" fill-opacity=".55"/><circle cx="329" cy="158" r="3.6"/></g></svg>