<svg xmlns="http://www.w3.org/2000/svg" viewBox="0 0 1600 900" fill="none" preserveAspectRatio="xMidYMid slice">
  <!-- Content source: FAQ — questions and answers alternate along one calm conversation path. -->
  <defs>
    <linearGradient id="route" x1="760" y1="0" x2="1580" y2="0" gradientUnits="userSpaceOnUse">
      <stop offset="0" stop-color="#8BBBF7" stop-opacity="0"/>
      <stop offset=".22" stop-color="#A8CDFF" stop-opacity=".22"/>
      <stop offset=".58" stop-color="#D9EAFF" stop-opacity=".62"/>
      <stop offset="1" stop-color="#6FAAF4" stop-opacity=".26"/>
    </linearGradient>
    <filter id="softGlow" x="-200%" y="-200%" width="500%" height="500%">
      <feGaussianBlur stdDeviation="5" result="blur"/>
      <feMerge><feMergeNode in="blur"/><feMergeNode in="SourceGraphic"/></feMerge>
    </filter>
  </defs>
  
  <path d="M800 300 C930 300 956 418 1080 418 C1210 418 1234 548 1360 548 C1460 548 1510 490 1570 442" stroke="url(#route)" stroke-width="1.35" stroke-linecap="round" opacity=".68"/>
  <path d="M800 300 C930 300 956 418 1080 418 C1210 418 1234 548 1360 548 C1460 548 1510 490 1570 442" stroke="#ECF6FF" stroke-width="1.05" stroke-linecap="round" opacity=".34" stroke-dasharray="38 680">
    <animate attributeName="stroke-dashoffset" from="720" to="-80" dur="10.8s" begin="0s" repeatCount="indefinite"/>
  </path>
   <path d="M820 350 C944 350 970 468 1090 468 C1210 468 1240 598 1360 598" stroke="#87B8F4" stroke-width="1.1" stroke-linecap="round" opacity=".15"/>
   <circle cx="1080" cy="418" r="3.2" fill="#F4FAFF" opacity=".88" filter="url(#softGlow)"/><circle cx="1080" cy="418" r="13" stroke="#78AEF0" stroke-width="1" opacity=".10"/><circle cx="1360" cy="548" r="3.2" fill="#F4FAFF" opacity=".88" filter="url(#softGlow)"/><circle cx="1360" cy="548" r="13" stroke="#78AEF0" stroke-width="1" opacity=".10"/>
</svg>
