<svg xmlns="http://www.w3.org/2000/svg" viewBox="0 0 800 800" fill="none">
<!-- Content source: Project information stays within the user device boundary; sharing is a separate controlled path. -->
<defs><linearGradient id="ink" gradientUnits="userSpaceOnUse" x1="120" y1="0" x2="680" y2="800"><stop stop-color="#e0edff" stop-opacity=".75"/><stop offset=".55" stop-color="#78afff" stop-opacity=".85"/><stop offset="1" stop-color="#3882f6" stop-opacity=".2"/></linearGradient></defs>
<g stroke="url(#ink)" stroke-width="1.5" stroke-linecap="round" stroke-linejoin="round"><rect x="200" y="170" width="390" height="440" rx="4" opacity="0.75"/><rect x="245" y="220" width="300" height="340" rx="4" opacity="0.27"/><rect x="285" y="280" width="180" height="46" rx="4" opacity="0.55"/><path d="M305 298h115" opacity="0.45"/><rect x="285" y="355" width="180" height="46" rx="4" opacity="0.55"/><path d="M305 373h115" opacity="0.45"/><rect x="285" y="430" width="180" height="46" rx="4" opacity="0.55"/><path d="M305 448h115" opacity="0.45"/><path d="M70 370H160M630 370H735" opacity="0.4"/><circle cx="160" cy="370" r="4" fill="#a8ccff" stroke="none"/><circle cx="160" cy="370" r="11" opacity=".25"/><circle cx="630" cy="370" r="4" fill="#a8ccff" stroke="none"/><circle cx="630" cy="370" r="11" opacity=".25"/><path d="M590 300V235M590 505V445" opacity="1"/><path d="M180 640H610" opacity="0.2"/></g>
</svg>