<svg xmlns="http://www.w3.org/2000/svg" viewBox="0 0 800 800" fill="none">
<!-- Content source: The six actual stages: request, scope, structure, build, review and handover. -->
<defs><linearGradient id="ink" gradientUnits="userSpaceOnUse" x1="120" y1="0" x2="680" y2="800"><stop stop-color="#e0edff" stop-opacity=".75"/><stop offset=".55" stop-color="#78afff" stop-opacity=".85"/><stop offset="1" stop-color="#3882f6" stop-opacity=".2"/></linearGradient></defs>
<g stroke="url(#ink)" stroke-width="1.5" stroke-linecap="round" stroke-linejoin="round"><path d="M110 190H550Q620 190 620 260V350Q620 420 550 420H260Q190 420 190 490V530Q190 600 260 600H640" opacity="1"/><rect x="116" y="156" width="68" height="68" rx="4" opacity="0.45"/><circle cx="150" cy="190" r="4" fill="#a8ccff" stroke="none"/><circle cx="150" cy="190" r="11" opacity=".25"/><rect x="346" y="156" width="68" height="68" rx="4" opacity="0.45"/><circle cx="380" cy="190" r="4" fill="#a8ccff" stroke="none"/><circle cx="380" cy="190" r="11" opacity=".25"/><rect x="586" y="266" width="68" height="68" rx="4" opacity="0.45"/><circle cx="620" cy="300" r="4" fill="#a8ccff" stroke="none"/><circle cx="620" cy="300" r="11" opacity=".25"/><rect x="366" y="386" width="68" height="68" rx="4" opacity="0.45"/><circle cx="400" cy="420" r="4" fill="#a8ccff" stroke="none"/><circle cx="400" cy="420" r="11" opacity=".25"/><rect x="156" y="486" width="68" height="68" rx="4" opacity="0.45"/><circle cx="190" cy="520" r="4" fill="#a8ccff" stroke="none"/><circle cx="190" cy="520" r="11" opacity=".25"/><rect x="536" y="566" width="68" height="68" rx="4" opacity="0.45"/><circle cx="570" cy="600" r="4" fill="#a8ccff" stroke="none"/><circle cx="570" cy="600" r="11" opacity=".25"/><path d="M80 100H710M80 690H710" opacity="0.15"/></g>
</svg>