<svg xmlns="http://www.w3.org/2000/svg" viewBox="0 0 1600 900" fill="none" preserveAspectRatio="xMidYMid slice">
  <!-- Content source: LedgerPro — scattered records settle into one consistent operational baseline. -->
  <defs>
    <linearGradient id="route" x1="760" y1="0" x2="1580" y2="0" gradientUnits="userSpaceOnUse">
      <stop offset="0" stop-color="#8BBBF7" stop-opacity="0"/>
      <stop offset=".22" stop-color="#A8CDFF" stop-opacity=".22"/>
      <stop offset=".58" stop-color="#D9EAFF" stop-opacity=".62"/>
      <stop offset="1" stop-color="#6FAAF4" stop-opacity=".26"/>
    </linearGradient>
    <filter id="softGlow" x="-200%" y="-200%" width="500%" height="500%">
      <feGaussianBlur stdDeviation="5" result="blur"/>
      <feMerge><feMergeNode in="blur"/><feMergeNode in="SourceGraphic"/></feMerge>
    </filter>
  </defs>
  <path d="M790 300 C920 330 1000 390 1120 450" stroke="#87B8F4" stroke-width="1.1" stroke-linecap="round" opacity=".14"/>
   <path d="M790 450 C930 450 1010 450 1120 450" stroke="#87B8F4" stroke-width="1.1" stroke-linecap="round" opacity=".23"/>
   <path d="M790 600 C920 570 1000 510 1120 450" stroke="#87B8F4" stroke-width="1.1" stroke-linecap="round" opacity=".14"/>
   
  <path d="M1120 450 C1260 450 1410 450 1570 450" stroke="url(#route)" stroke-width="1.35" stroke-linecap="round" opacity=".82"/>
  <path d="M1120 450 C1260 450 1410 450 1570 450" stroke="#ECF6FF" stroke-width="1.05" stroke-linecap="round" opacity=".34" stroke-dasharray="38 680">
    <animate attributeName="stroke-dashoffset" from="720" to="-80" dur="8.6s" begin="0s" repeatCount="indefinite"/>
  </path>
   <circle cx="1120" cy="450" r="3.5" fill="#F4FAFF" opacity=".88" filter="url(#softGlow)"/><circle cx="1120" cy="450" r="13" stroke="#78AEF0" stroke-width="1" opacity=".10"/><circle cx="1390" cy="450" r="2.8" fill="#F4FAFF" opacity=".88" filter="url(#softGlow)"/><circle cx="1390" cy="450" r="13" stroke="#78AEF0" stroke-width="1" opacity=".10"/>
</svg>
