<svg xmlns="http://www.w3.org/2000/svg" viewBox="0 0 1600 900" fill="none" preserveAspectRatio="xMidYMid slice">
  <!-- Content source: E-commerce & Systems — catalog choices converge into an order flow and continue into operations. -->
  <defs>
    <linearGradient id="route" x1="760" y1="0" x2="1580" y2="0" gradientUnits="userSpaceOnUse">
      <stop offset="0" stop-color="#8BBBF7" stop-opacity="0"/>
      <stop offset=".22" stop-color="#A8CDFF" stop-opacity=".22"/>
      <stop offset=".58" stop-color="#D9EAFF" stop-opacity=".62"/>
      <stop offset="1" stop-color="#6FAAF4" stop-opacity=".26"/>
    </linearGradient>
    <filter id="softGlow" x="-200%" y="-200%" width="500%" height="500%">
      <feGaussianBlur stdDeviation="5" result="blur"/>
      <feMerge><feMergeNode in="blur"/><feMergeNode in="SourceGraphic"/></feMerge>
    </filter>
  </defs>
  <path d="M790 270 C930 285 1000 365 1140 448" stroke="#87B8F4" stroke-width="1.1" stroke-linecap="round" opacity=".18"/>
   <path d="M790 448 C930 448 1010 448 1140 448" stroke="#87B8F4" stroke-width="1.1" stroke-linecap="round" opacity=".25"/>
   <path d="M790 626 C930 610 1000 530 1140 448" stroke="#87B8F4" stroke-width="1.1" stroke-linecap="round" opacity=".18"/>
   
  <path d="M1140 448 C1280 448 1360 390 1450 360 C1500 344 1540 344 1580 350" stroke="url(#route)" stroke-width="1.35" stroke-linecap="round" opacity=".82"/>
  <path d="M1140 448 C1280 448 1360 390 1450 360 C1500 344 1540 344 1580 350" stroke="#ECF6FF" stroke-width="1.05" stroke-linecap="round" opacity=".34" stroke-dasharray="38 680">
    <animate attributeName="stroke-dashoffset" from="720" to="-80" dur="9s" begin="0s" repeatCount="indefinite"/>
  </path>
   <circle cx="1140" cy="448" r="3.6" fill="#F4FAFF" opacity=".88" filter="url(#softGlow)"/><circle cx="1140" cy="448" r="13" stroke="#78AEF0" stroke-width="1" opacity=".10"/><circle cx="1450" cy="360" r="2.8" fill="#F4FAFF" opacity=".88" filter="url(#softGlow)"/><circle cx="1450" cy="360" r="13" stroke="#78AEF0" stroke-width="1" opacity=".10"/>
</svg>
