<svg xmlns="http://www.w3.org/2000/svg" viewBox="0 0 800 800" fill="none">
<!-- Content source: Two sides align around an agreed scope, responsibilities and handover. -->
<defs><linearGradient id="ink" gradientUnits="userSpaceOnUse" x1="120" y1="0" x2="680" y2="800"><stop stop-color="#e0edff" stop-opacity=".75"/><stop offset=".55" stop-color="#78afff" stop-opacity=".85"/><stop offset="1" stop-color="#3882f6" stop-opacity=".2"/></linearGradient></defs>
<g stroke="url(#ink)" stroke-width="1.5" stroke-linecap="round" stroke-linejoin="round"><rect x="150" y="160" width="260" height="400" rx="4" opacity="0.5"/><rect x="370" y="230" width="260" height="400" rx="4" opacity="0.7"/><path d="M180 215h150" opacity="0.45"/><path d="M180 239h97.5" opacity="0.45"/><path d="M180 263h150" opacity="0.45"/><path d="M180 287h97.5" opacity="0.45"/><path d="M180 311h150" opacity="0.45"/><path d="M405 295h165" opacity="0.45"/><path d="M405 319h107.25" opacity="0.45"/><path d="M405 343h165" opacity="0.45"/><path d="M405 367h107.25" opacity="0.45"/><path d="M405 391h165" opacity="0.45"/><path d="M150 605H330M450 180H630" opacity="0.3"/><path d="M320 485L358 523L430 451" opacity="1"/><circle cx="390" cy="560" r="3" fill="#a8ccff" stroke="none"/><circle cx="390" cy="560" r="10" opacity=".25"/></g>
</svg>